Coordinates
version=1
nRows=4
nColumns=124
inDegrees=yes

Units are S.I. units (second, meters, Newtons, ...)
If the header above contains a line with 'inDegrees', this indicates whether rotational values are in degrees (yes) or radians (no).

endheader 
time	pelvis_tilt	pelvis_list	pelvis_rotation	pelvis_tx	pelvis_ty	pelvis_tz	hip_flexion_l	hip_adduction_l	hip_rotation_l	hip_flexion_r	hip_adduction_r	hip_rotation_r	knee_angle_l	knee_angle_r	ankle_angle_l	ankle_angle_r	subtalar_angle_l	subtalar_angle_r	mtp_angle_l	mtp_angle_r	lumbar_extension	lumbar_bending	lumbar_rotation	arm_flex_l	arm_add_l	arm_rot_l	arm_flex_r	arm_add_r	arm_rot_r	elbow_flex_l	elbow_flex_r	glut_med1_l/activation	glut_med2_l/activation	glut_med3_l/activation	glut_min1_l/activation	glut_min2_l/activation	glut_min3_l/activation	semimem_l/activation	semiten_l/activation	bifemlh_l/activation	bifemsh_l/activation	sar_l/activation	add_long_l/activation	add_brev_l/activation	add_mag1_l/activation	add_mag2_l/activation	add_mag3_l/activation	tfl_l/activation	pect_l/activation	grac_l/activation	glut_max1_l/activation	glut_max2_l/activation	glut_max3_l/activation	iliacus_l/activation	psoas_l/activation	quad_fem_l/activation	gem_l/activation	peri_l/activation	rect_fem_l/activation	vas_med_l/activation	vas_int_l/activation	vas_lat_l/activation	med_gas_l/activation	lat_gas_l/activation	soleus_l/activation	tib_post_l/activation	flex_dig_l/activation	flex_hal_l/activation	tib_ant_l/activation	per_brev_l/activation	per_long_l/activation	per_tert_l/activation	ext_dig_l/activation	ext_hal_l/activation	ercspn_l/activation	intobl_l/activation	extobl_l/activation	glut_med1_r/activation	glut_med2_r/activation	glut_med3_r/activation	glut_min1_r/activation	glut_min2_r/activation	glut_min3_r/activation	semimem_r/activation	semiten_r/activation	bifemlh_r/activation	bifemsh_r/activation	sar_r/activation	add_long_r/activation	add_brev_r/activation	add_mag1_r/activation	add_mag2_r/activation	add_mag3_r/activation	tfl_r/activation	pect_r/activation	grac_r/activation	glut_max1_r/activation	glut_max2_r/activation	glut_max3_r/activation	iliacus_r/activation	psoas_r/activation	quad_fem_r/activation	gem_r/activation	peri_r/activation	rect_fem_r/activation	vas_med_r/activation	vas_int_r/activation	vas_lat_r/activation	med_gas_r/activation	lat_gas_r/activation	soleus_r/activation	tib_post_r/activation	flex_dig_r/activation	flex_hal_r/activation	tib_ant_r/activation	per_brev_r/activation	per_long_r/activation	per_tert_r/activation	ext_dig_r/activation	ext_hal_r/activation	ercspn_r/activation	intobl_r/activation	extobl_r/activation	
          0.00000000	         -2.32317927	          0.10281289	         -9.34179949	          0.00000000	          1.00354212	          0.01391048	         28.36309728	         -1.91282158	          0.08824901	         -2.60391258	          2.09552261	         17.81690596	        -17.18712040	        -15.15955845	         -0.07819221	         13.35634627	        -11.95201504	         -6.45202924	          0.14176470	         20.13858076	          0.12021003	          6.73069245	         -3.03637455	         17.62080400	        -13.46363045	          6.76481647	        -11.57094444	        -14.02708858	         13.00176921	         68.58007498	          0.16162164	          0.05001124	          0.05000798	          0.05001405	          0.05000824	          0.05000994	          0.05001429	          0.05000047	          0.05000148	          0.05000072	          0.06255569	          0.05508747	          0.19999099	          0.05235023	          0.05003081	          0.05002692	          0.05001964	          0.07684137	          0.05001943	          0.05000494	          0.05001646	          0.05001900	          0.05003290	          0.08764481	          0.16268029	          0.13741310	          0.05000546	          0.05000300	          0.08217707	          0.05304084	          0.05157500	          0.05000185	          0.05000166	          0.05000330	          0.07682736	          0.22621124	          0.08800072	          0.05293426	          0.24699355	          0.05000262	          0.05002383	          0.05000624	          0.55521363	          0.23971065	          0.11248756	          0.30760368	          0.16292109	          0.49240520	          0.64388568	          0.18462806	          0.29016943	          0.32860052	          0.08052907	          0.05000163	          0.05000085	          0.05000061	          0.05000192	          0.13055974	          0.05000047	          0.05000105	          0.05000825	          0.05001216	          0.05000821	          0.47163223	          0.05000376	          0.05000183	          0.05006001	          0.05003008	          0.05000719	          0.11015914	          0.21180709	          0.05000169	          0.05001732	          0.43475556	          0.73824353	          0.17252928	          0.18291360	          0.15450766	          0.45601178	          0.47729117	          0.42820699	          0.46567136	          0.17191796	          0.18834308	          0.05005332	          0.05000234	          0.05000124	          0.05000919	          0.05001388	          0.05001437	          0.05000009	          0.05000012	          0.05000012	
          0.03219879	         -2.32437696	         -0.60423451	        -10.35676527	          0.02508561	          0.99962070	          0.01481708	         28.01218756	         -2.51738831	          0.24667798	         -4.61784080	          2.18486216	         17.60793640	        -15.03064762	        -14.24437181	         -1.63380651	         13.20759119	        -12.62315927	         -5.61483129	          0.20442364	         22.09158723	          0.40813740	          6.65375406	         -2.94381158	         17.98376409	        -13.46343846	          7.54100385	         -8.36864788	        -14.01142365	         13.93036107	         57.34213212	          0.00000834	          0.05000288	          0.05000565	          0.05000920	          0.05001812	          0.05001159	          0.05001231	          0.05000098	          0.05000412	          0.05000233	          0.05000406	          0.05000826	          0.18144827	          0.18142336	          0.05002100	          0.05001548	          0.05001970	          0.05000735	          0.05003347	          0.05002465	          0.05001057	          0.05000888	          0.05001940	          0.10240594	          0.10629316	          0.21418677	          0.07684327	          0.05017646	          0.07907540	          0.10632441	          0.10520395	          0.08159702	          0.05000034	          0.05000075	          0.05000015	          0.28249447	          0.11409821	          0.05000309	          0.59824973	          0.05000043	          0.05000024	          0.14642508	          0.66198694	          0.44869846	          0.10399551	          0.30363350	          0.10602427	          0.38279921	          0.49327552	          0.20694390	          0.19773215	          0.27653301	          0.10426221	          0.05000203	          0.05000097	          0.05000079	          0.05000210	          0.15718498	          0.05000041	          0.05000097	          0.05000824	          0.05001251	          0.05000862	          0.36448458	          0.05000323	          0.05000197	          0.05038973	          0.05575397	          0.05001018	          0.09503519	          0.13872975	          0.05001032	          0.06449145	          0.34010024	          0.71256839	          0.12965308	          0.13867820	          0.11505376	          0.51193498	          0.55918833	          0.43745490	          0.48268113	          0.21525438	          0.24619555	          0.05000144	          0.05000625	          0.05013848	          0.05000254	          0.05000063	          0.05000198	          0.05000007	          0.05000013	          0.05000012	
          0.06439759	         -2.32202481	         -1.29053362	        -11.20949619	          0.05187458	          0.99617434	          0.01546682	         27.42556116	         -2.99138263	          0.42808175	         -6.73846975	          2.20864181	         17.14924720	        -16.09113447	        -13.31209160	         -3.27788699	         12.52794065	        -13.72707229	         -4.91160037	          0.18702238	         24.27621065	          0.80644211	          6.40321747	         -2.85892097	         17.77599116	        -13.47161846	          9.39464569	         -5.49710614	        -13.85801589	         15.92949243	         46.13414470	          0.59837546	          0.05000097	          0.05000069	          0.05000136	          0.05000244	          0.05000185	          0.05000339	          0.05000549	          0.05000129	          0.05000113	          0.05000333	          0.07674333	          0.11808183	          0.11807136	          0.07684794	          0.07682814	          0.05002778	          0.05000275	          0.07685494	          0.07686520	          0.05000204	          0.05000143	          0.05000448	          0.11806343	          0.11073403	          0.26180208	          0.05000924	          0.05000156	          0.07683500	          0.08049560	          0.08722045	          0.09684235	          0.05000050	          0.05000110	          0.05000025	          0.35704484	          0.17339493	          0.05000792	          0.65856910	          0.05000665	          0.05000036	          0.18441237	          0.72096832	          0.60558295	          0.08353485	          0.30381935	          0.06899726	          0.24911418	          0.32100834	          0.13467538	          0.12868257	          0.17996157	          0.07683520	          0.05000117	          0.05000052	          0.05000047	          0.05000257	          0.11806963	          0.05000051	          0.05000095	          0.05000782	          0.05001215	          0.05000649	          0.23719616	          0.05000500	          0.05000223	          0.05003225	          0.05001900	          0.05000604	          0.13019434	          0.12746157	          0.05821943	          0.05843425	          0.22132707	          0.52426612	          0.11913563	          0.12692580	          0.10658882	          0.53603272	          0.60420722	          0.41187207	          0.49553881	          0.25063034	          0.28653320	          0.05000098	          0.05000204	          0.05000172	          0.05000145	          0.05000040	          0.05000131	          0.05000170	          0.05000008	          0.05000008	
          0.09659638	         -2.32243881	         -1.91741798	        -11.82357867	          0.07933534	          0.99393332	          0.01584637	         26.82523754	         -3.39159237	          0.46388732	         -8.60578359	          2.27437385	         16.50677360	        -18.22297856	        -12.88453197	         -2.95436161	         11.19424985	        -15.16526930	         -4.48255026	          0.22775899	         26.58662763	          1.21990074	          5.93502642	         -2.80290039	         16.74223248	        -13.50263133	         12.33007191	         -3.18363004	        -13.65475402	         18.08658189	         35.95953873	          2.79795436	          0.12324569	          0.39487378	          0.31642269	          0.05004721	          0.11099080	          0.08870558	          0.05000183	          0.05577150	          0.06656205	          0.05000539	          0.05000461	          0.07684392	          0.07683725	          0.05001297	          0.05000747	          0.05001032	          0.07712035	          0.05001611	          0.05002245	          0.16118510	          0.24540360	          0.08976028	          0.07683204	          0.07206236	          0.27082463	          0.32533194	          0.31885974	          0.05000550	          0.19973060	          0.23127927	          0.23908044	          0.05000054	          0.05000115	          0.05000017	          0.40721064	          0.19417801	          0.05000858	          0.57584875	          0.05000064	          0.05000044	          0.12002317	          0.58010078	          0.45007744	          0.05436183	          0.23829160	          0.05000015	          0.16211572	          0.20890206	          0.08764342	          0.08374332	          0.11711385	          0.05001465	          0.05001299	          0.05000479	          0.05000240	          0.05000240	          0.07683705	          0.26582940	          0.05000585	          0.05001809	          0.05001770	          0.05002190	          0.15436001	          0.05001179	          0.05000596	          0.05001895	          0.05002440	          0.05002356	          0.08472662	          0.08294829	          0.05000367	          0.05001194	          0.14403290	          0.34117577	          0.15108674	          0.15693933	          0.13599596	          0.50684363	          0.58754997	          0.34590898	          0.49339263	          0.24820598	          0.28931883	          0.05000115	          0.05000232	          0.05835943	          0.05000159	          0.05000047	          0.05000154	          0.09955839	          0.05000010	          0.06899388	
